<svg xmlns="http://www.w3.org/2000/svg" version="1.1" xmlns:xlink="http://www.w3.org/1999/xlink" xmlns:svgjs="http://svgjs.dev/svgjs" width="1440" height="560" preserveAspectRatio="none" viewBox="0 0 1440 560"><g mask="url(&quot;#SvgjsMask1250&quot;)" fill="none"><rect width="1440" height="560" x="0" y="0" fill="rgba(247, 248, 252, 1)"></rect><path d="M1376.04 449.97L1402.67 449.97L1402.67 476.6L1376.04 476.6z" stroke="rgba(3, 123, 11, 0.88)"></path><path d="M368.26 166.9L381.99 166.9L381.99 180.63L368.26 180.63z" stroke="rgba(3, 123, 11, 0.88)"></path><path d="M429.04 66.46L473.74 66.46L473.74 81.04L429.04 81.04z" stroke="rgba(211, 183, 20, 0.85)"></path><path d="M1358.92 389.83a22.1 22.1 0 1 0-30.73 31.76z" stroke="rgba(231, 54, 53, 0.82)"></path><path d="M135.37 220.14L152.92 220.14L152.92 265.04L135.37 265.04z" fill="rgba(231, 54, 53, 0.82)"></path><path d="M746.28 430.09L770.8 430.09L770.8 454.61L746.28 454.61z" fill="rgba(3, 123, 11, 0.88)"></path><path d="M1111.56 252.61a2.21 2.21 0 1 0-4.01-1.86z" fill="rgba(211, 183, 20, 0.85)"></path><path d="M346.14 338.83 a48.05 48.05 0 1 0 96.1 0 a48.05 48.05 0 1 0 -96.1 0z" stroke="rgba(211, 183, 20, 0.85)"></path><path d="M403.25 225.52L439.61 225.52L439.61 261.88L403.25 261.88z" fill="rgba(3, 123, 11, 0.88)"></path><path d="M428.13 17.3 a53 53 0 1 0 106 0 a53 53 0 1 0 -106 0z" fill="rgba(231, 54, 53, 0.82)"></path><path d="M549.78 488.25a32.63 32.63 0 1 0-55.9-33.67z" fill="rgba(3, 123, 11, 0.88)"></path><path d="M34.99 546.83 a9.42 9.42 0 1 0 18.84 0 a9.42 9.42 0 1 0 -18.84 0z" stroke="rgba(211, 183, 20, 0.85)"></path><path d="M1242.52 83.09a46.68 46.68 0 1 0 16.14 91.96z" fill="rgba(231, 54, 53, 0.82)"></path><path d="M92.19 258.15L111.05 258.15L111.05 277.01L92.19 277.01z" fill="rgba(3, 123, 11, 0.88)"></path><path d="M378.35 284.4L414.79 284.4L414.79 320.84L378.35 320.84z" fill="rgba(211, 183, 20, 0.85)"></path><path d="M234.73 130.99L274.38 130.99L274.38 164.13L234.73 164.13z" stroke="rgba(231, 54, 53, 0.82)"></path><path d="M628.6 255.96L649.33 255.96L649.33 276.69L628.6 276.69z" stroke="rgba(3, 123, 11, 0.88)"></path><path d="M1313.72 275.36L1314.45 275.36L1314.45 276.09L1313.72 276.09z" fill="rgba(231, 54, 53, 0.82)"></path><path d="M829.73 81.61 a11.32 11.32 0 1 0 22.64 0 a11.32 11.32 0 1 0 -22.64 0z" stroke="rgba(3, 123, 11, 0.88)"></path><path d="M90.01 529.72L141.22 529.72L141.22 561.17L90.01 561.17z" fill="rgba(211, 183, 20, 0.85)"></path><path d="M1232.17 48.1L1259.96 48.1L1259.96 75.89L1232.17 75.89z" stroke="rgba(3, 123, 11, 0.88)"></path><path d="M1117.08 63.16 a0.64 0.64 0 1 0 1.28 0 a0.64 0.64 0 1 0 -1.28 0z" fill="rgba(211, 183, 20, 0.85)"></path><path d="M1271.66 52.64a50.75 50.75 0 1 0-74.82-68.59z" stroke="rgba(211, 183, 20, 0.85)"></path><path d="M1004.68 412.79 a52.71 52.71 0 1 0 105.42 0 a52.71 52.71 0 1 0 -105.42 0z" fill="rgba(3, 123, 11, 0.88)"></path><path d="M1105.28 512.1L1138.45 512.1L1138.45 545.27L1105.28 545.27z" stroke="rgba(211, 183, 20, 0.85)"></path><path d="M185.67 370.8L195.8 370.8L195.8 380.93L185.67 380.93z" fill="rgba(231, 54, 53, 0.82)"></path><path d="M81.15 196.63a24.88 24.88 0 1 0 45.08-21.08z" fill="rgba(231, 54, 53, 0.82)"></path><path d="M157.57 559.19L163.19 559.19L163.19 580.9L157.57 580.9z" fill="rgba(3, 123, 11, 0.88)"></path><path d="M215 392.16 a27.73 27.73 0 1 0 55.46 0 a27.73 27.73 0 1 0 -55.46 0z" fill="rgba(231, 54, 53, 0.82)"></path><path d="M1203.35 256.37 a10.36 10.36 0 1 0 20.72 0 a10.36 10.36 0 1 0 -20.72 0z" stroke="rgba(3, 123, 11, 0.88)"></path><path d="M995.9 8.77L1009.1 8.77L1009.1 21.97L995.9 21.97z" stroke="rgba(3, 123, 11, 0.88)"></path><path d="M752 539.75L776.38 539.75L776.38 543.16L752 543.16z" fill="rgba(211, 183, 20, 0.85)"></path><path d="M438.86 481.17L442.97 481.17L442.97 485.28L438.86 485.28z" fill="rgba(231, 54, 53, 0.82)"></path></g><defs><mask id="SvgjsMask1250"><rect width="1440" height="560" fill="#ffffff"></rect></mask></defs></svg>